<svg width="16" height="17" viewBox="0 0 16 17" fill="none" xmlns="http://www.w3.org/2000/svg">
<path d="M14.1248 2.05111L10.7462 2.47076C10.6283 2.48504 10.5801 2.6279 10.6623 2.71183L11.6391 3.68861L8.89799 6.42968C8.8714 6.45653 8.85649 6.49279 8.85649 6.53058C8.85649 6.56836 8.8714 6.60462 8.89799 6.63147L9.70335 7.43683C9.7587 7.49218 9.84977 7.49218 9.90513 7.43683L12.648 4.69397L13.6248 5.67076C13.6436 5.68959 13.6674 5.70274 13.6934 5.70868C13.7193 5.71463 13.7465 5.71314 13.7716 5.70438C13.7968 5.69561 13.819 5.67994 13.8356 5.65915C13.8523 5.63836 13.8628 5.61329 13.8658 5.58683L14.2837 2.21004C14.2867 2.18848 14.2846 2.16652 14.2776 2.14589C14.2707 2.12526 14.2591 2.10651 14.2437 2.09112C14.2283 2.07573 14.2096 2.06411 14.1889 2.05717C14.1683 2.05023 14.1463 2.04816 14.1248 2.05111ZM6.2962 9.23326C6.26935 9.20667 6.23309 9.19176 6.19531 9.19176C6.15752 9.19176 6.12127 9.20667 6.09442 9.23326L3.35334 11.9761L2.37656 10.9993C2.35771 10.9805 2.33394 10.9673 2.30797 10.9614C2.282 10.9555 2.25487 10.9569 2.22971 10.9657C2.20455 10.9745 2.18236 10.9901 2.16569 11.0109C2.14903 11.0317 2.13856 11.0568 2.13549 11.0833L1.71584 14.46C1.70513 14.5529 1.78192 14.6297 1.87477 14.619L5.25335 14.1993C5.3712 14.185 5.41942 14.0422 5.33727 13.9583L4.36049 12.9815L7.10334 10.2386C7.1587 10.1833 7.1587 10.0922 7.10334 10.0368L6.2962 9.23326Z" fill="white" fill-opacity="0.8"/>
</svg>
